<svg xmlns="http://www.w3.org/2000/svg" xmlns:xlink="http://www.w3.org/1999/xlink" width="11.718" height="11.15" viewBox="0 0 11.718 11.15">
  <defs>
    <style>
      .cls-1 {
        fill: #b7b7b7;
        fill-rule: evenodd;
        filter: url(#filter);
      }
    </style>
    <filter id="filter" x="574.188" y="2028.88" width="11.718" height="11.15" filterUnits="userSpaceOnUse">
      <feFlood result="flood" flood-color="#eecf00"/>
      <feComposite result="composite" operator="in" in2="SourceGraphic"/>
      <feBlend result="blend" in2="SourceGraphic"/>
    </filter>
  </defs>
  <path id="Star_1" class="cls-1" d="M585.9,2033.19a0.4,0.4,0,0,0-.394-0.32l-3.53-.51-1.582-3.2a0.35,0.35,0,0,0-.689,0l-1.582,3.2-3.529.51a0.389,0.389,0,0,0-.394.32,0.538,0.538,0,0,0,.176.34l2.559,2.49-0.6,3.52a0.949,0.949,0,0,0-.014.14,0.308,0.308,0,0,0,.3.35,0.6,0.6,0,0,0,.281-0.09l3.157-1.66,3.157,1.66a0.569,0.569,0,0,0,.281.09,0.3,0.3,0,0,0,.289-0.35,0.938,0.938,0,0,0-.007-0.14l-0.605-3.52,2.552-2.49A0.516,0.516,0,0,0,585.9,2033.19Z" transform="translate(-574.188 -2028.88)"/>
</svg>
